<?xml version="1.0" standalone="no"?>
<!DOCTYPE svg PUBLIC "-//W3C//DTD SVG 20010904//EN"
 "http://www.w3.org/TR/2001/REC-SVG-20010904/DTD/svg10.dtd">
<svg version="1.0" xmlns="http://www.w3.org/2000/svg"
 width="150.000000pt" height="150.000000pt" viewBox="0 0 150.000000 150.000000"
 preserveAspectRatio="xMidYMid meet">
<metadata>
Created by potrace 1.10, written by Peter Selinger 2001-2011
</metadata>
<g transform="translate(0.000000,150.000000) scale(0.100000,-0.100000)"
fill="#fff" stroke="none">
<path d="M643 1340 c-65 -39 -68 -87 -18 -264 36 -127 41 -156 27 -156 -4 0
-46 39 -92 86 -115 116 -153 144 -202 144 -95 0 -178 -97 -178 -208 0 -68 39
-100 166 -135 204 -58 203 -57 197 -73 -3 -8 -12 -14 -20 -14 -24 0 -248 -67
-281 -84 -141 -73 -12 -351 145 -311 16 4 75 53 138 116 61 60 116 109 123
109 18 0 15 -21 -23 -153 -19 -67 -35 -140 -35 -163 0 -79 62 -124 169 -124
155 0 201 74 150 245 -30 102 -49 175 -49 185 0 26 34 2 120 -85 52 -53 109
-105 126 -115 47 -30 95 -26 145 12 85 65 116 186 64 254 -27 35 -55 46 -280
107 -90 25 -72 37 135 93 84 22 111 34 138 60 28 28 32 39 32 83 0 103 -81
201 -168 201 -48 0 -70 -15 -202 -139 -72 -67 -101 -89 -105 -78 -4 8 10 70
29 138 52 179 47 237 -24 274 -45 23 -186 20 -227 -5z"/>
</g>
</svg>
